<mxfile host="app.diagrams.net" modified="2024-04-15T06:16:38.745Z" agent="Mozilla/5.0 (Macintosh; Intel Mac OS X 10_15_7) AppleWebKit/537.36 (KHTML, like Gecko) Chrome/123.0.0.0 Safari/537.36" etag="RAOJeRFClHmJH_5X4gqE" version="24.2.5" type="github">
  <diagram name="Page-1" id="74e2e168-ea6b-b213-b513-2b3c1d86103e">
    <mxGraphModel dx="1434" dy="761" grid="1" gridSize="10" guides="1" tooltips="1" connect="1" arrows="1" fold="1" page="1" pageScale="1" pageWidth="1100" pageHeight="850" background="none" math="0" shadow="0">
      <root>
        <mxCell id="0" />
        <mxCell id="1" parent="0" />
        <mxCell id="77e6c97f196da883-1" value="Pool" style="swimlane;html=1;childLayout=stackLayout;startSize=20;rounded=0;shadow=0;labelBackgroundColor=none;strokeWidth=1;fontFamily=Verdana;fontSize=8;align=center;" parent="1" vertex="1">
          <mxGeometry x="40" y="40" width="990" height="750" as="geometry" />
        </mxCell>
        <mxCell id="77e6c97f196da883-26" style="edgeStyle=orthogonalEdgeStyle;rounded=1;html=1;labelBackgroundColor=none;startArrow=none;startFill=0;startSize=5;endArrow=classicThin;endFill=1;endSize=5;jettySize=auto;orthogonalLoop=1;strokeWidth=1;fontFamily=Verdana;fontSize=8" parent="77e6c97f196da883-1" source="77e6c97f196da883-8" target="77e6c97f196da883-11" edge="1">
          <mxGeometry relative="1" as="geometry" />
        </mxCell>
        <mxCell id="77e6c97f196da883-27" style="edgeStyle=orthogonalEdgeStyle;rounded=1;html=1;labelBackgroundColor=none;startArrow=none;startFill=0;startSize=5;endArrow=classicThin;endFill=1;endSize=5;jettySize=auto;orthogonalLoop=1;strokeWidth=1;fontFamily=Verdana;fontSize=8;entryX=0.5;entryY=0;entryDx=0;entryDy=0;exitX=0.5;exitY=1;exitDx=0;exitDy=0;" parent="77e6c97f196da883-1" source="77e6c97f196da883-11" target="sTDW9HD0c9le8lV0YwXp-1" edge="1">
          <mxGeometry relative="1" as="geometry">
            <Array as="points">
              <mxPoint x="380" y="160" />
              <mxPoint x="70" y="160" />
            </Array>
            <mxPoint x="70" y="170" as="targetPoint" />
          </mxGeometry>
        </mxCell>
        <mxCell id="107ba76e4e335f99-6" style="edgeStyle=orthogonalEdgeStyle;rounded=1;html=1;labelBackgroundColor=none;startArrow=none;startFill=0;startSize=5;endArrow=classicThin;endFill=1;endSize=5;jettySize=auto;orthogonalLoop=1;strokeWidth=1;fontFamily=Verdana;fontSize=8" parent="77e6c97f196da883-1" source="77e6c97f196da883-14" edge="1">
          <mxGeometry relative="1" as="geometry">
            <mxPoint x="510" y="610" as="targetPoint" />
          </mxGeometry>
        </mxCell>
        <mxCell id="77e6c97f196da883-2" value="客户端" style="swimlane;html=1;startSize=20;" parent="77e6c97f196da883-1" vertex="1">
          <mxGeometry y="20" width="300" height="730" as="geometry" />
        </mxCell>
        <mxCell id="77e6c97f196da883-8" value="&lt;font style=&quot;font-size: 12px;&quot;&gt;客户端发送查询&lt;/font&gt;" style="rounded=1;whiteSpace=wrap;html=1;shadow=0;labelBackgroundColor=none;strokeWidth=1;fontFamily=Verdana;fontSize=8;align=center;" parent="77e6c97f196da883-2" vertex="1">
          <mxGeometry x="20" y="65" width="100" height="60" as="geometry" />
        </mxCell>
        <mxCell id="77e6c97f196da883-10" value="&lt;font style=&quot;font-size: 12px;&quot;&gt;根据定位获取经纬度信息&lt;/font&gt;" style="rounded=1;whiteSpace=wrap;html=1;shadow=0;labelBackgroundColor=none;strokeWidth=1;fontFamily=Verdana;fontSize=8;align=center;" parent="77e6c97f196da883-2" vertex="1">
          <mxGeometry x="20" y="270" width="100" height="60" as="geometry" />
        </mxCell>
        <mxCell id="sTDW9HD0c9le8lV0YwXp-2" style="edgeStyle=orthogonalEdgeStyle;rounded=1;orthogonalLoop=1;jettySize=auto;html=1;exitX=0.5;exitY=1;exitDx=0;exitDy=0;strokeColor=default;strokeWidth=1;align=center;verticalAlign=middle;fontFamily=Verdana;fontSize=8;fontColor=default;labelBackgroundColor=none;startArrow=none;startFill=0;startSize=5;endArrow=classicThin;endFill=1;endSize=5;" parent="77e6c97f196da883-2" source="sTDW9HD0c9le8lV0YwXp-1" target="77e6c97f196da883-10" edge="1">
          <mxGeometry relative="1" as="geometry" />
        </mxCell>
        <mxCell id="sTDW9HD0c9le8lV0YwXp-9" value="是" style="edgeLabel;html=1;align=center;verticalAlign=middle;resizable=0;points=[];rounded=1;strokeColor=default;strokeWidth=1;fontFamily=Verdana;fontSize=8;fontColor=default;labelBackgroundColor=none;" parent="sTDW9HD0c9le8lV0YwXp-2" vertex="1" connectable="0">
          <mxGeometry x="-0.131" relative="1" as="geometry">
            <mxPoint as="offset" />
          </mxGeometry>
        </mxCell>
        <mxCell id="sTDW9HD0c9le8lV0YwXp-1" value="&lt;font style=&quot;font-size: 12px;&quot;&gt;是否授权地理位置权限&lt;/font&gt;" style="rhombus;whiteSpace=wrap;html=1;rounded=0;shadow=0;labelBackgroundColor=none;strokeWidth=1;fontFamily=Verdana;fontSize=8;align=center;" parent="77e6c97f196da883-2" vertex="1">
          <mxGeometry x="30" y="170" width="80" height="60" as="geometry" />
        </mxCell>
        <mxCell id="sTDW9HD0c9le8lV0YwXp-3" style="edgeStyle=orthogonalEdgeStyle;rounded=1;orthogonalLoop=1;jettySize=auto;html=1;exitX=0.5;exitY=1;exitDx=0;exitDy=0;entryX=1;entryY=0.5;entryDx=0;entryDy=0;strokeColor=default;strokeWidth=1;align=center;verticalAlign=middle;fontFamily=Verdana;fontSize=8;fontColor=default;labelBackgroundColor=none;startArrow=none;startFill=0;startSize=5;endArrow=classicThin;endFill=1;endSize=5;" parent="77e6c97f196da883-2" source="77e6c97f196da883-12" target="77e6c97f196da883-10" edge="1">
          <mxGeometry relative="1" as="geometry" />
        </mxCell>
        <mxCell id="77e6c97f196da883-12" value="&lt;font style=&quot;font-size: 12px;&quot;&gt;拉起授权弹窗&lt;/font&gt;" style="rounded=1;whiteSpace=wrap;html=1;shadow=0;labelBackgroundColor=none;strokeWidth=1;fontFamily=Verdana;fontSize=8;align=center;" parent="77e6c97f196da883-2" vertex="1">
          <mxGeometry x="180" y="170" width="100" height="60" as="geometry" />
        </mxCell>
        <mxCell id="77e6c97f196da883-28" value="否" style="edgeStyle=orthogonalEdgeStyle;rounded=1;html=1;labelBackgroundColor=none;startArrow=none;startFill=0;startSize=5;endArrow=classicThin;endFill=1;endSize=5;jettySize=auto;orthogonalLoop=1;strokeWidth=1;fontFamily=Verdana;fontSize=8;exitX=1;exitY=0.5;exitDx=0;exitDy=0;" parent="77e6c97f196da883-2" source="sTDW9HD0c9le8lV0YwXp-1" target="77e6c97f196da883-12" edge="1">
          <mxGeometry relative="1" as="geometry">
            <mxPoint x="120" y="200" as="sourcePoint" />
          </mxGeometry>
        </mxCell>
        <mxCell id="sTDW9HD0c9le8lV0YwXp-10" style="edgeStyle=orthogonalEdgeStyle;rounded=1;orthogonalLoop=1;jettySize=auto;html=1;exitX=0.5;exitY=1;exitDx=0;exitDy=0;strokeColor=default;strokeWidth=1;align=center;verticalAlign=middle;fontFamily=Verdana;fontSize=8;fontColor=default;labelBackgroundColor=none;startArrow=none;startFill=0;startSize=5;endArrow=classicThin;endFill=1;endSize=5;" parent="77e6c97f196da883-2" source="sTDW9HD0c9le8lV0YwXp-6" target="77e6c97f196da883-13" edge="1">
          <mxGeometry relative="1" as="geometry" />
        </mxCell>
        <mxCell id="sTDW9HD0c9le8lV0YwXp-6" value="&lt;font style=&quot;font-size: 12px;&quot;&gt;对话展示信息卡片&lt;/font&gt;" style="rounded=1;whiteSpace=wrap;html=1;shadow=0;labelBackgroundColor=none;strokeWidth=1;fontFamily=Verdana;fontSize=8;align=center;" parent="77e6c97f196da883-2" vertex="1">
          <mxGeometry x="20" y="400" width="100" height="60" as="geometry" />
        </mxCell>
        <mxCell id="sTDW9HD0c9le8lV0YwXp-8" value="&lt;font style=&quot;font-size: 12px;&quot;&gt;跳转百度地图app&lt;/font&gt;" style="rounded=1;whiteSpace=wrap;html=1;shadow=0;labelBackgroundColor=none;strokeWidth=1;fontFamily=Verdana;fontSize=8;align=center;" parent="77e6c97f196da883-2" vertex="1">
          <mxGeometry x="20" y="590" width="100" height="60" as="geometry" />
        </mxCell>
        <mxCell id="sTDW9HD0c9le8lV0YwXp-11" style="edgeStyle=orthogonalEdgeStyle;rounded=1;orthogonalLoop=1;jettySize=auto;html=1;exitX=0.5;exitY=1;exitDx=0;exitDy=0;strokeColor=default;strokeWidth=1;align=center;verticalAlign=middle;fontFamily=Verdana;fontSize=8;fontColor=default;labelBackgroundColor=none;startArrow=none;startFill=0;startSize=5;endArrow=classicThin;endFill=1;endSize=5;" parent="77e6c97f196da883-2" source="77e6c97f196da883-13" target="sTDW9HD0c9le8lV0YwXp-8" edge="1">
          <mxGeometry relative="1" as="geometry" />
        </mxCell>
        <mxCell id="sTDW9HD0c9le8lV0YwXp-13" style="edgeStyle=orthogonalEdgeStyle;rounded=1;orthogonalLoop=1;jettySize=auto;html=1;exitX=1;exitY=0.5;exitDx=0;exitDy=0;strokeColor=default;strokeWidth=1;align=center;verticalAlign=middle;fontFamily=Verdana;fontSize=8;fontColor=default;labelBackgroundColor=none;startArrow=none;startFill=0;startSize=5;endArrow=classicThin;endFill=1;endSize=5;" parent="77e6c97f196da883-2" source="77e6c97f196da883-13" target="sTDW9HD0c9le8lV0YwXp-12" edge="1">
          <mxGeometry relative="1" as="geometry" />
        </mxCell>
        <mxCell id="77e6c97f196da883-13" value="&lt;font style=&quot;font-size: 12px;&quot;&gt;是否安装百度地图&lt;/font&gt;" style="rhombus;whiteSpace=wrap;html=1;rounded=0;shadow=0;labelBackgroundColor=none;strokeWidth=1;fontFamily=Verdana;fontSize=8;align=center;" parent="77e6c97f196da883-2" vertex="1">
          <mxGeometry x="30" y="490" width="80" height="60" as="geometry" />
        </mxCell>
        <mxCell id="sTDW9HD0c9le8lV0YwXp-12" value="&lt;font style=&quot;font-size: 12px;&quot;&gt;webview打开&lt;/font&gt;" style="rounded=1;whiteSpace=wrap;html=1;shadow=0;labelBackgroundColor=none;strokeWidth=1;fontFamily=Verdana;fontSize=8;align=center;" parent="77e6c97f196da883-2" vertex="1">
          <mxGeometry x="160" y="590" width="100" height="60" as="geometry" />
        </mxCell>
        <mxCell id="77e6c97f196da883-3" value="服务端" style="swimlane;html=1;startSize=20;" parent="77e6c97f196da883-1" vertex="1">
          <mxGeometry x="300" y="20" width="160" height="730" as="geometry" />
        </mxCell>
        <mxCell id="77e6c97f196da883-11" value="&lt;font style=&quot;font-size: 12px;&quot;&gt;服务端接收后判断意图需要地理位置&lt;/font&gt;" style="rounded=1;whiteSpace=wrap;html=1;shadow=0;labelBackgroundColor=none;strokeWidth=1;fontFamily=Verdana;fontSize=8;align=center;" parent="77e6c97f196da883-3" vertex="1">
          <mxGeometry x="30" y="65" width="100" height="60" as="geometry" />
        </mxCell>
        <mxCell id="sTDW9HD0c9le8lV0YwXp-4" value="&lt;font style=&quot;font-size: 12px;&quot;&gt;使用经纬度获取poi列表&lt;/font&gt;" style="rounded=1;whiteSpace=wrap;html=1;shadow=0;labelBackgroundColor=none;strokeWidth=1;fontFamily=Verdana;fontSize=8;align=center;" parent="77e6c97f196da883-3" vertex="1">
          <mxGeometry x="30" y="330" width="100" height="60" as="geometry" />
        </mxCell>
        <mxCell id="77e6c97f196da883-4" value="Lane 3" style="swimlane;html=1;startSize=20;" parent="77e6c97f196da883-1" vertex="1">
          <mxGeometry x="460" y="20" width="160" height="730" as="geometry" />
        </mxCell>
        <mxCell id="77e6c97f196da883-14" value="" style="rounded=1;whiteSpace=wrap;html=1;shadow=0;labelBackgroundColor=none;strokeWidth=1;fontFamily=Verdana;fontSize=8;align=center;" parent="77e6c97f196da883-4" vertex="1">
          <mxGeometry x="30" y="560" width="100" height="60" as="geometry" />
        </mxCell>
        <mxCell id="sTDW9HD0c9le8lV0YwXp-5" style="edgeStyle=orthogonalEdgeStyle;rounded=1;orthogonalLoop=1;jettySize=auto;html=1;exitX=0.5;exitY=1;exitDx=0;exitDy=0;entryX=0;entryY=0.5;entryDx=0;entryDy=0;strokeColor=default;strokeWidth=1;align=center;verticalAlign=middle;fontFamily=Verdana;fontSize=8;fontColor=default;labelBackgroundColor=none;startArrow=none;startFill=0;startSize=5;endArrow=classicThin;endFill=1;endSize=5;" parent="77e6c97f196da883-1" source="77e6c97f196da883-10" target="sTDW9HD0c9le8lV0YwXp-4" edge="1">
          <mxGeometry relative="1" as="geometry" />
        </mxCell>
        <mxCell id="sTDW9HD0c9le8lV0YwXp-7" style="edgeStyle=orthogonalEdgeStyle;rounded=1;orthogonalLoop=1;jettySize=auto;html=1;exitX=0.5;exitY=1;exitDx=0;exitDy=0;entryX=1;entryY=0.5;entryDx=0;entryDy=0;strokeColor=default;strokeWidth=1;align=center;verticalAlign=middle;fontFamily=Verdana;fontSize=8;fontColor=default;labelBackgroundColor=none;startArrow=none;startFill=0;startSize=5;endArrow=classicThin;endFill=1;endSize=5;" parent="77e6c97f196da883-1" source="sTDW9HD0c9le8lV0YwXp-4" target="sTDW9HD0c9le8lV0YwXp-6" edge="1">
          <mxGeometry relative="1" as="geometry" />
        </mxCell>
        <mxCell id="ri2Kr-zbxP5ry35ItDVp-1" value="Pool" style="swimlane;html=1;childLayout=stackLayout;startSize=20;rounded=0;shadow=0;labelBackgroundColor=none;strokeWidth=1;fontFamily=Verdana;fontSize=8;align=center;" vertex="1" parent="1">
          <mxGeometry x="40" y="930" width="990" height="750" as="geometry" />
        </mxCell>
        <mxCell id="ri2Kr-zbxP5ry35ItDVp-2" style="edgeStyle=orthogonalEdgeStyle;rounded=1;html=1;labelBackgroundColor=none;startArrow=none;startFill=0;startSize=5;endArrow=classicThin;endFill=1;endSize=5;jettySize=auto;orthogonalLoop=1;strokeWidth=1;fontFamily=Verdana;fontSize=8" edge="1" parent="ri2Kr-zbxP5ry35ItDVp-1" source="ri2Kr-zbxP5ry35ItDVp-6" target="ri2Kr-zbxP5ry35ItDVp-22">
          <mxGeometry relative="1" as="geometry" />
        </mxCell>
        <mxCell id="ri2Kr-zbxP5ry35ItDVp-5" value="客户端" style="swimlane;html=1;startSize=20;" vertex="1" parent="ri2Kr-zbxP5ry35ItDVp-1">
          <mxGeometry y="20" width="340" height="730" as="geometry" />
        </mxCell>
        <mxCell id="ri2Kr-zbxP5ry35ItDVp-6" value="&lt;font style=&quot;font-size: 12px;&quot;&gt;客户端发送查询&lt;/font&gt;" style="rounded=1;whiteSpace=wrap;html=1;shadow=0;labelBackgroundColor=none;strokeWidth=1;fontFamily=Verdana;fontSize=8;align=center;" vertex="1" parent="ri2Kr-zbxP5ry35ItDVp-5">
          <mxGeometry x="20" y="65" width="100" height="60" as="geometry" />
        </mxCell>
        <mxCell id="ri2Kr-zbxP5ry35ItDVp-7" value="&lt;font style=&quot;font-size: 12px;&quot;&gt;根据定位获取经纬度信息&lt;/font&gt;" style="rounded=1;whiteSpace=wrap;html=1;shadow=0;labelBackgroundColor=none;strokeWidth=1;fontFamily=Verdana;fontSize=8;align=center;" vertex="1" parent="ri2Kr-zbxP5ry35ItDVp-5">
          <mxGeometry x="20" y="400" width="100" height="60" as="geometry" />
        </mxCell>
        <mxCell id="ri2Kr-zbxP5ry35ItDVp-8" style="edgeStyle=orthogonalEdgeStyle;rounded=1;orthogonalLoop=1;jettySize=auto;html=1;exitX=0.5;exitY=1;exitDx=0;exitDy=0;strokeColor=default;strokeWidth=1;align=center;verticalAlign=middle;fontFamily=Verdana;fontSize=8;fontColor=default;labelBackgroundColor=none;startArrow=none;startFill=0;startSize=5;endArrow=classicThin;endFill=1;endSize=5;" edge="1" parent="ri2Kr-zbxP5ry35ItDVp-5" source="ri2Kr-zbxP5ry35ItDVp-10" target="ri2Kr-zbxP5ry35ItDVp-7">
          <mxGeometry relative="1" as="geometry" />
        </mxCell>
        <mxCell id="ri2Kr-zbxP5ry35ItDVp-9" value="是" style="edgeLabel;html=1;align=center;verticalAlign=middle;resizable=0;points=[];rounded=1;strokeColor=default;strokeWidth=1;fontFamily=Verdana;fontSize=8;fontColor=default;labelBackgroundColor=none;" vertex="1" connectable="0" parent="ri2Kr-zbxP5ry35ItDVp-8">
          <mxGeometry x="-0.131" relative="1" as="geometry">
            <mxPoint as="offset" />
          </mxGeometry>
        </mxCell>
        <mxCell id="ri2Kr-zbxP5ry35ItDVp-10" value="&lt;font style=&quot;font-size: 12px;&quot;&gt;是否授权地理位置权限&lt;/font&gt;" style="rhombus;whiteSpace=wrap;html=1;rounded=0;shadow=0;labelBackgroundColor=none;strokeWidth=1;fontFamily=Verdana;fontSize=8;align=center;" vertex="1" parent="ri2Kr-zbxP5ry35ItDVp-5">
          <mxGeometry x="30" y="300" width="80" height="60" as="geometry" />
        </mxCell>
        <mxCell id="ri2Kr-zbxP5ry35ItDVp-11" style="edgeStyle=orthogonalEdgeStyle;rounded=1;orthogonalLoop=1;jettySize=auto;html=1;exitX=0.5;exitY=1;exitDx=0;exitDy=0;entryX=1;entryY=0.5;entryDx=0;entryDy=0;strokeColor=default;strokeWidth=1;align=center;verticalAlign=middle;fontFamily=Verdana;fontSize=8;fontColor=default;labelBackgroundColor=none;startArrow=none;startFill=0;startSize=5;endArrow=classicThin;endFill=1;endSize=5;" edge="1" parent="ri2Kr-zbxP5ry35ItDVp-5" source="ri2Kr-zbxP5ry35ItDVp-12" target="ri2Kr-zbxP5ry35ItDVp-7">
          <mxGeometry relative="1" as="geometry" />
        </mxCell>
        <mxCell id="ri2Kr-zbxP5ry35ItDVp-12" value="&lt;font style=&quot;font-size: 12px;&quot;&gt;拉起授权弹窗&lt;/font&gt;" style="rounded=1;whiteSpace=wrap;html=1;shadow=0;labelBackgroundColor=none;strokeWidth=1;fontFamily=Verdana;fontSize=8;align=center;" vertex="1" parent="ri2Kr-zbxP5ry35ItDVp-5">
          <mxGeometry x="180" y="300" width="100" height="60" as="geometry" />
        </mxCell>
        <mxCell id="ri2Kr-zbxP5ry35ItDVp-13" value="否" style="edgeStyle=orthogonalEdgeStyle;rounded=1;html=1;labelBackgroundColor=none;startArrow=none;startFill=0;startSize=5;endArrow=classicThin;endFill=1;endSize=5;jettySize=auto;orthogonalLoop=1;strokeWidth=1;fontFamily=Verdana;fontSize=8;exitX=1;exitY=0.5;exitDx=0;exitDy=0;" edge="1" parent="ri2Kr-zbxP5ry35ItDVp-5" source="ri2Kr-zbxP5ry35ItDVp-10" target="ri2Kr-zbxP5ry35ItDVp-12">
          <mxGeometry relative="1" as="geometry">
            <mxPoint x="120" y="330" as="sourcePoint" />
          </mxGeometry>
        </mxCell>
        <mxCell id="ri2Kr-zbxP5ry35ItDVp-15" value="&lt;font style=&quot;font-size: 12px;&quot;&gt;对话展示信息卡片&lt;/font&gt;" style="rounded=1;whiteSpace=wrap;html=1;shadow=0;labelBackgroundColor=none;strokeWidth=1;fontFamily=Verdana;fontSize=8;align=center;" vertex="1" parent="ri2Kr-zbxP5ry35ItDVp-5">
          <mxGeometry x="20" y="530" width="100" height="60" as="geometry" />
        </mxCell>
        <mxCell id="ri2Kr-zbxP5ry35ItDVp-30" value="否" style="edgeStyle=orthogonalEdgeStyle;rounded=0;orthogonalLoop=1;jettySize=auto;html=1;exitX=0.5;exitY=1;exitDx=0;exitDy=0;" edge="1" parent="ri2Kr-zbxP5ry35ItDVp-5" source="ri2Kr-zbxP5ry35ItDVp-29" target="ri2Kr-zbxP5ry35ItDVp-10">
          <mxGeometry relative="1" as="geometry" />
        </mxCell>
        <mxCell id="ri2Kr-zbxP5ry35ItDVp-29" value="&lt;span style=&quot;font-size: 12px;&quot;&gt;位置缓存&lt;/span&gt;&lt;div&gt;&lt;span style=&quot;font-size: 12px;&quot;&gt;是否可用&lt;/span&gt;&lt;/div&gt;" style="rhombus;whiteSpace=wrap;html=1;rounded=0;shadow=0;labelBackgroundColor=none;strokeWidth=1;fontFamily=Verdana;fontSize=8;align=center;" vertex="1" parent="ri2Kr-zbxP5ry35ItDVp-5">
          <mxGeometry x="30" y="200" width="80" height="60" as="geometry" />
        </mxCell>
        <mxCell id="ri2Kr-zbxP5ry35ItDVp-33" value="&lt;div&gt;需要刷新位置的情况&lt;/div&gt;1.冷启动&lt;div&gt;2.距离上次调用SDK是否超过15分钟&lt;/div&gt;" style="text;html=1;align=left;verticalAlign=middle;resizable=0;points=[];autosize=1;strokeColor=none;fillColor=none;" vertex="1" parent="ri2Kr-zbxP5ry35ItDVp-5">
          <mxGeometry x="110" y="160" width="220" height="60" as="geometry" />
        </mxCell>
        <mxCell id="ri2Kr-zbxP5ry35ItDVp-21" value="服务端" style="swimlane;html=1;startSize=20;" vertex="1" parent="ri2Kr-zbxP5ry35ItDVp-1">
          <mxGeometry x="340" y="20" width="170" height="730" as="geometry" />
        </mxCell>
        <mxCell id="ri2Kr-zbxP5ry35ItDVp-22" value="&lt;font style=&quot;font-size: 12px;&quot;&gt;服务端接收后判断意图需要地理位置&lt;/font&gt;" style="rounded=1;whiteSpace=wrap;html=1;shadow=0;labelBackgroundColor=none;strokeWidth=1;fontFamily=Verdana;fontSize=8;align=center;" vertex="1" parent="ri2Kr-zbxP5ry35ItDVp-21">
          <mxGeometry x="30" y="65" width="100" height="60" as="geometry" />
        </mxCell>
        <mxCell id="ri2Kr-zbxP5ry35ItDVp-23" value="&lt;font style=&quot;font-size: 12px;&quot;&gt;使用经纬度获取天气&lt;/font&gt;" style="rounded=1;whiteSpace=wrap;html=1;shadow=0;labelBackgroundColor=none;strokeWidth=1;fontFamily=Verdana;fontSize=8;align=center;" vertex="1" parent="ri2Kr-zbxP5ry35ItDVp-21">
          <mxGeometry x="35" y="460" width="100" height="60" as="geometry" />
        </mxCell>
        <mxCell id="ri2Kr-zbxP5ry35ItDVp-24" value="Lane 3" style="swimlane;html=1;startSize=20;" vertex="1" parent="ri2Kr-zbxP5ry35ItDVp-1">
          <mxGeometry x="510" y="20" width="160" height="730" as="geometry" />
        </mxCell>
        <mxCell id="ri2Kr-zbxP5ry35ItDVp-3" style="edgeStyle=orthogonalEdgeStyle;rounded=1;html=1;labelBackgroundColor=none;startArrow=none;startFill=0;startSize=5;endArrow=classicThin;endFill=1;endSize=5;jettySize=auto;orthogonalLoop=1;strokeWidth=1;fontFamily=Verdana;fontSize=8;exitX=0.5;exitY=1;exitDx=0;exitDy=0;" edge="1" parent="ri2Kr-zbxP5ry35ItDVp-1" source="ri2Kr-zbxP5ry35ItDVp-22" target="ri2Kr-zbxP5ry35ItDVp-29">
          <mxGeometry relative="1" as="geometry">
            <Array as="points">
              <mxPoint x="420" y="180" />
              <mxPoint x="70" y="180" />
            </Array>
            <mxPoint x="70" y="220" as="targetPoint" />
          </mxGeometry>
        </mxCell>
        <mxCell id="ri2Kr-zbxP5ry35ItDVp-26" style="edgeStyle=orthogonalEdgeStyle;rounded=1;orthogonalLoop=1;jettySize=auto;html=1;exitX=0.5;exitY=1;exitDx=0;exitDy=0;entryX=0;entryY=0.5;entryDx=0;entryDy=0;strokeColor=default;strokeWidth=1;align=center;verticalAlign=middle;fontFamily=Verdana;fontSize=8;fontColor=default;labelBackgroundColor=none;startArrow=none;startFill=0;startSize=5;endArrow=classicThin;endFill=1;endSize=5;" edge="1" parent="ri2Kr-zbxP5ry35ItDVp-1" source="ri2Kr-zbxP5ry35ItDVp-7" target="ri2Kr-zbxP5ry35ItDVp-23">
          <mxGeometry relative="1" as="geometry" />
        </mxCell>
        <mxCell id="ri2Kr-zbxP5ry35ItDVp-27" style="edgeStyle=orthogonalEdgeStyle;rounded=1;orthogonalLoop=1;jettySize=auto;html=1;exitX=0.5;exitY=1;exitDx=0;exitDy=0;entryX=1;entryY=0.5;entryDx=0;entryDy=0;strokeColor=default;strokeWidth=1;align=center;verticalAlign=middle;fontFamily=Verdana;fontSize=8;fontColor=default;labelBackgroundColor=none;startArrow=none;startFill=0;startSize=5;endArrow=classicThin;endFill=1;endSize=5;" edge="1" parent="ri2Kr-zbxP5ry35ItDVp-1" source="ri2Kr-zbxP5ry35ItDVp-23" target="ri2Kr-zbxP5ry35ItDVp-15">
          <mxGeometry relative="1" as="geometry" />
        </mxCell>
        <mxCell id="ri2Kr-zbxP5ry35ItDVp-31" style="edgeStyle=orthogonalEdgeStyle;rounded=1;orthogonalLoop=1;jettySize=auto;html=1;exitX=1;exitY=0.5;exitDx=0;exitDy=0;strokeColor=default;strokeWidth=1;align=center;verticalAlign=middle;fontFamily=Verdana;fontSize=8;fontColor=default;labelBackgroundColor=none;startArrow=none;startFill=0;startSize=5;endArrow=classicThin;endFill=1;endSize=5;" edge="1" parent="ri2Kr-zbxP5ry35ItDVp-1" source="ri2Kr-zbxP5ry35ItDVp-29" target="ri2Kr-zbxP5ry35ItDVp-23">
          <mxGeometry relative="1" as="geometry" />
        </mxCell>
        <mxCell id="ri2Kr-zbxP5ry35ItDVp-32" value="是" style="edgeLabel;html=1;align=center;verticalAlign=middle;resizable=0;points=[];" vertex="1" connectable="0" parent="ri2Kr-zbxP5ry35ItDVp-31">
          <mxGeometry x="-0.5927" y="-1" relative="1" as="geometry">
            <mxPoint as="offset" />
          </mxGeometry>
        </mxCell>
      </root>
    </mxGraphModel>
  </diagram>
</mxfile>
